<?xml version="1.0" encoding="iso-8859-1"?>
<!-- Generator: Adobe Illustrator 19.0.0, SVG Export Plug-In . SVG Version: 6.00 Build 0)  -->
<svg xmlns="http://www.w3.org/2000/svg" xmlns:xlink="http://www.w3.org/1999/xlink" version="1.1" id="Layer_1" x="0px" y="0px" viewBox="0 0 511.999 511.999" style="enable-background:new 0 0 511.999 511.999;" xml:space="preserve">
<g>
	<g>
		<g>
			<path d="M146.804,222.656h-11.41c-47.499,0-86.141,38.643-86.141,86.142v55.835c0,47.498,38.643,86.141,86.141,86.141h11.41     c47.5,0,86.142-38.643,86.142-86.141v-55.835C232.946,261.299,194.303,222.656,146.804,222.656z M129.628,326.003     c-17.316,18.543-25.027,38.397-22.921,59.011c1.242,12.16,5.867,22.806,11.409,31.559c-21.746-7.254-37.471-27.788-37.471-51.94     v-55.835c0-29.73,23.822-53.982,53.377-54.716c3.156,4.055,7.553,10.674,10.33,18.994     C150.5,291.497,145.683,308.808,129.628,326.003z M201.555,364.634c0,25.32-17.282,46.673-40.668,52.904     c-1.466-1.092-21.031-16.021-22.967-35.865c-1.087-11.148,3.842-22.67,14.65-34.246c30.256-32.401,28.423-63.722,21.558-84.291     c-0.248-0.742-0.505-1.473-0.768-2.196c16.8,9.36,28.195,27.298,28.195,47.857V364.634z"/>
			<path d="M376.605,283.881h-11.41c-47.5,0-86.142,38.643-86.142,86.141v55.835c0,47.5,38.643,86.142,86.142,86.142h11.41     c47.499,0,86.141-38.643,86.141-86.142v-55.835C462.746,322.524,424.103,283.881,376.605,283.881z M359.429,387.228     c-17.317,18.543-25.029,38.397-22.921,59.011c1.242,12.16,5.867,22.806,11.41,31.56c-21.747-7.254-37.473-27.789-37.473-51.942     v-55.835c0-29.729,23.822-53.981,53.378-54.715c3.156,4.055,7.553,10.674,10.33,18.994     C380.301,352.721,375.483,370.032,359.429,387.228z M431.354,425.857c0,25.322-17.282,46.675-40.668,52.905     c-0.701-0.512-20.891-15.551-22.951-35.714c-1.144-11.197,3.781-22.77,14.636-34.396c30.256-32.401,28.423-63.722,21.558-84.291     c-0.248-0.742-0.505-1.472-0.768-2.195c16.8,9.36,28.194,27.298,28.194,47.856V425.857z"/>
			<path d="M321.381,228.118v0.001c47.5,0,86.142-38.643,86.142-86.142V86.142C407.523,38.643,368.881,0,321.381,0h-11.41     c-47.499,0-86.141,38.643-86.141,86.141v55.835c0,47.5,38.643,86.142,86.141,86.142H321.381z M348.705,40.48     c-0.248-0.742-0.505-1.472-0.768-2.196c16.8,9.362,28.194,27.3,28.194,47.858v55.835c0,25.322-17.281,46.674-40.667,52.905     c-1.461-1.087-21.031-16.018-22.967-35.865c-1.087-11.148,3.842-22.67,14.65-34.246C357.404,92.369,355.571,61.048,348.705,40.48     z M281.284,162.359c1.243,12.16,5.867,22.806,11.41,31.56c-21.746-7.255-37.472-27.789-37.472-51.942V86.142     c0-29.729,23.822-53.981,53.377-54.715c3.156,4.055,7.553,10.674,10.33,18.994c6.149,18.42,1.331,35.731-14.724,52.926     C286.889,121.892,279.178,141.745,281.284,162.359z"/>
		</g>
	</g>
</g>
<g>
</g>
<g>
</g>
<g>
</g>
<g>
</g>
<g>
</g>
<g>
</g>
<g>
</g>
<g>
</g>
<g>
</g>
<g>
</g>
<g>
</g>
<g>
</g>
<g>
</g>
<g>
</g>
<g>
</g>
</svg>
