<?xml version="1.0" encoding="iso-8859-1"?>
<!-- Generator: Adobe Illustrator 19.0.0, SVG Export Plug-In . SVG Version: 6.00 Build 0)  -->
<svg xmlns="http://www.w3.org/2000/svg" xmlns:xlink="http://www.w3.org/1999/xlink" version="1.1" id="Layer_1" x="0px" y="0px" viewBox="0 0 512 512" style="enable-background:new 0 0 512 512;" xml:space="preserve">
<g>
	<g>
		<path d="M499.832,12.17c-8.368-8.368-19.951-12.785-31.755-12.1c-11.814,0.676-22.807,6.381-30.164,15.649l-43.418,54.699    c-6.539-2.452-13.53-3.746-20.724-3.746c-15.741,0-30.539,6.13-41.669,17.26L90.244,325.789    c-12.817,12.816-19.876,29.858-19.876,47.982c0,6.414,0.901,12.686,2.612,18.69l-57.263,45.453    c-9.268,7.355-14.972,18.349-15.649,30.162c-0.677,11.814,3.732,23.389,12.1,31.756C19.975,507.638,30.573,512,41.551,512    c0.789,0,1.58-0.023,2.372-0.068c11.813-0.677,22.807-6.38,30.163-15.647l45.453-57.265c6.003,1.71,12.275,2.611,18.689,2.611    c18.126,0,35.166-7.058,47.983-19.875l235.545-235.544c18.016-18.016,23.752-43.722,17.233-66.648l57.295-45.477    c9.268-7.357,14.972-18.352,15.648-30.165C512.608,32.109,508.198,20.536,499.832,12.17z M49.499,476.767    c-2.462,3.102-5.676,3.728-7.372,3.825c-1.7,0.098-4.962-0.157-7.761-2.957c-2.8-2.8-3.055-6.065-2.958-7.761    c0.097-1.697,0.723-4.911,3.825-7.372l53.384-42.372l3.255,3.254L49.499,476.767z M399.558,164.015L164.014,399.558    c-6.887,6.887-16.045,10.681-25.786,10.681s-18.899-3.793-25.786-10.681c-6.887-6.888-10.681-16.045-10.681-25.786    s3.793-18.899,10.681-25.786l241.86-241.859c5.201-5.202,12.116-8.066,19.471-8.066c7.355,0,14.271,2.864,19.473,8.067    l1.903,1.903l4.424,4.424C413.777,126.677,413.771,149.8,399.558,164.015z M480.591,42.126c-0.097,1.697-0.723,4.911-3.825,7.373    l-53.384,42.373l-1.614-1.614c-0.005-0.005-0.009-0.01-0.015-0.016l-1.626-1.626l42.372-53.384    c2.461-3.102,5.675-3.726,7.371-3.825c1.699-0.091,4.962,0.158,7.761,2.958C480.433,37.166,480.688,40.43,480.591,42.126z"/>
	</g>
</g>
<g>
</g>
<g>
</g>
<g>
</g>
<g>
</g>
<g>
</g>
<g>
</g>
<g>
</g>
<g>
</g>
<g>
</g>
<g>
</g>
<g>
</g>
<g>
</g>
<g>
</g>
<g>
</g>
<g>
</g>
</svg>
