<?xml version="1.0" encoding="iso-8859-1"?>
<!-- Generator: Adobe Illustrator 19.0.0, SVG Export Plug-In . SVG Version: 6.00 Build 0)  -->
<svg xmlns="http://www.w3.org/2000/svg" xmlns:xlink="http://www.w3.org/1999/xlink" version="1.1" id="Layer_1" x="0px" y="0px" viewBox="0 0 512 512" style="enable-background:new 0 0 512 512;" xml:space="preserve">
<g>
	<g>
		<g>
			<path d="M33.442,317.187c-44.495,44.495-44.495,116.893,0,161.388C54.995,500.13,83.653,512,114.135,512     c30.482,0,59.14-11.87,80.694-33.425c44.495-44.495,44.495-116.893,0-161.388C150.334,272.694,77.935,272.694,33.442,317.187z      M172.612,456.359c-15.619,15.619-36.386,24.222-58.476,24.222c-22.09,0-42.857-8.603-58.477-24.222     c-32.244-32.244-32.244-84.711,0-116.955c16.122-16.122,37.3-24.183,58.477-24.183c21.178,0,42.355,8.061,58.477,24.183     C204.857,371.648,204.857,424.115,172.612,456.359z"/>
			<circle cx="114.135" cy="397.881" r="20.458"/>
			<path d="M492.515,19.416C479.381,6.282,461.215-0.772,442.65,0.067c-18.555,0.838-36.021,9.499-47.917,23.763L202.848,253.902     c-35.72-22.025-78.783-30.221-121-22.047l5.972,30.846c45.03-8.72,91.248,5.4,123.643,37.769l0.082,0.082     c34.249,34.278,47.848,82.882,36.376,130.032l30.528,7.427c6.74-27.699,6.373-56.882-1.061-84.392     c-4.251-15.732-10.795-30.74-19.333-44.559l230.044-191.863c14.264-11.896,22.925-29.362,23.763-47.917     C512.701,50.725,505.648,32.55,492.515,19.416z M480.476,67.862c-0.447,9.904-4.887,18.856-12.501,25.205l-228.72,190.759     l-11.152-11.152l190.759-228.72c6.351-7.615,15.302-12.053,25.206-12.502c9.901-0.443,19.219,3.168,26.23,10.179     C477.308,48.643,480.923,57.958,480.476,67.862z"/>
		</g>
	</g>
</g>
<g>
</g>
<g>
</g>
<g>
</g>
<g>
</g>
<g>
</g>
<g>
</g>
<g>
</g>
<g>
</g>
<g>
</g>
<g>
</g>
<g>
</g>
<g>
</g>
<g>
</g>
<g>
</g>
<g>
</g>
</svg>
