<?xml version="1.0" encoding="iso-8859-1"?>
<!-- Generator: Adobe Illustrator 19.0.0, SVG Export Plug-In . SVG Version: 6.00 Build 0)  -->
<svg xmlns="http://www.w3.org/2000/svg" xmlns:xlink="http://www.w3.org/1999/xlink" version="1.1" id="Layer_1" x="0px" y="0px" viewBox="0 0 512 512" style="enable-background:new 0 0 512 512;" xml:space="preserve">
<g>
	<g>
		<path d="M423.79,134.463v113.166c-7.603,25.889-25.362,29.933-29.151,30.507H354.22v-71.052c0-6.107-1.472-11.874-4.067-16.979    c11.516-8.854,19.21-22.434,20.154-37.817h0.109h15.151v-31.347h-15.151V96.915c0-18.722-15.231-33.954-33.953-33.954h-35.539    c-18.721,0-33.953,15.232-33.953,33.954v24.026h-14.106v31.347h14.106h0.109c0.863,14.065,7.369,26.625,17.282,35.442    c-3.3,5.477-5.236,11.86-5.357,18.678l-55.226,71.728H67.918c-10.788,0-20.355-6.919-28.436-20.568    c-4.94-8.341-14.536-12.225-23.877-9.667C6.271,250.457,0,258.682,0,268.366v49.13l59.687,69.31h52.658L99.82,403.073    l59.701,45.966l47.916-62.233h177.085c51.22,0,76.503-25.302,88.694-46.528c6.445-11.223,9.86-22.296,11.669-30.794H512v-175.02    H423.79z M153.807,405.077l-10.026-7.72l28.266-36.71l9.355-1.781l0.671,9.499L153.807,405.077z M187.011,325.892l-32.532,6.189    l-17.999,23.379H74.06v-0.001l-42.713-49.599v-9.713c10.728,8.793,23.07,13.338,36.571,13.338h131.725L187.011,325.892z     M298.318,96.915c0-1.438,1.169-2.607,2.606-2.607h35.539c1.437,0,2.606,1.169,2.606,2.607v24.026h-40.751V96.915z     M318.694,169.466c-10.145,0-18.557-7.461-20.1-17.178h40.199C337.251,162.006,328.839,169.466,318.694,169.466z M322.873,207.084    v71.052h-12.539v-71.052c0-3.458,2.812-6.269,6.269-6.269C320.062,200.814,322.873,203.626,322.873,207.084z M278.988,257.813    v20.321h-15.646L278.988,257.813z M480.653,278.137h-24.661v-0.001l-0.412,15.25c-0.004,0.154-0.665,15.81-9.549,31.279    c-11.734,20.433-32.429,30.794-61.51,30.794H212.586l-0.738-10.444l27.358-35.532h39.782v0.001h75.233v-0.001h41.357l1.186-0.045    c1.782-0.136,43.425-3.877,57.473-54.289h26.417V278.137z M480.653,223.802h-25.516v-13h25.516V223.802z M480.653,179.455h-25.516    v-13.646h25.516V179.455z"/>
	</g>
</g>
<g>
</g>
<g>
</g>
<g>
</g>
<g>
</g>
<g>
</g>
<g>
</g>
<g>
</g>
<g>
</g>
<g>
</g>
<g>
</g>
<g>
</g>
<g>
</g>
<g>
</g>
<g>
</g>
<g>
</g>
</svg>
