<?xml version="1.0" encoding="iso-8859-1"?>
<!-- Generator: Adobe Illustrator 19.0.0, SVG Export Plug-In . SVG Version: 6.00 Build 0)  -->
<svg xmlns="http://www.w3.org/2000/svg" xmlns:xlink="http://www.w3.org/1999/xlink" version="1.1" id="Layer_1" x="0px" y="0px" viewBox="0 0 512 512" style="enable-background:new 0 0 512 512;" xml:space="preserve">
<g>
	<g>
		<path d="M362.375,383.081V334.76h-14.656c-2.259-28.301-11.893-89.065-52.459-140.618v-67.196h-24.331v-16.81h8.674V78.822h-8.674    V0h-31.315v78.82h-8.675v31.315h8.675v16.81h-24.332v69.059c-39.346,51.146-48.769,110.795-51.001,138.756h-14.656v48.323H132.02    V512h247.96V383.081H362.375z M246.595,158.26h17.349v25.747h-17.349V158.26z M239.928,215.321h32.141    c32.924,42.994,41.774,94.296,44.149,119.438H195.743C198.068,309.666,206.848,258.486,239.928,215.321z M180.938,366.074h150.122    v17.007H180.938V366.074z M330.914,480.685v-25.472c0-6.153-4.988-11.142-11.142-11.142s-11.142,4.988-11.142,11.142v25.472    h-20.233v-25.472c0-6.153-4.988-11.142-11.142-11.142c-6.153,0-11.142,4.988-11.142,11.142v25.472h-20.233v-25.472    c0-6.153-4.988-11.142-11.142-11.142s-11.142,4.988-11.142,11.142v25.472h-20.231v-25.472c0-6.153-4.988-11.142-11.142-11.142    c-6.153,0-11.142,4.988-11.142,11.142v25.472h-17.75v-66.29h185.331v66.29H330.914z"/>
	</g>
</g>
<g>
</g>
<g>
</g>
<g>
</g>
<g>
</g>
<g>
</g>
<g>
</g>
<g>
</g>
<g>
</g>
<g>
</g>
<g>
</g>
<g>
</g>
<g>
</g>
<g>
</g>
<g>
</g>
<g>
</g>
</svg>
