<?xml version="1.0" encoding="iso-8859-1"?>
<!-- Generator: Adobe Illustrator 19.0.0, SVG Export Plug-In . SVG Version: 6.00 Build 0)  -->
<svg xmlns="http://www.w3.org/2000/svg" xmlns:xlink="http://www.w3.org/1999/xlink" version="1.1" id="Layer_1" x="0px" y="0px" viewBox="0 0 512 512" style="enable-background:new 0 0 512 512;" xml:space="preserve">
<g>
	<g>
		<path d="M450.334,287.165v-20.52c0-46.35-8.109-86.908-24.1-120.551c-13.061-27.475-31.324-50.358-54.283-68.012    c-39.216-30.153-78.579-34.451-80.235-34.62l-0.79-0.08h-74.861V16.204h-91.057v85.698h29.858v29.906H104.72v55.434H59.342    L0,294.324l56.705,201.472h227.662l56.705-201.472L281.73,187.242h-45.378v-55.434h-50.146v-29.906h29.858V74.723h73.128    c4.673,0.631,33.962,5.374,63.653,28.203c43.892,33.749,66.147,88.832,66.147,163.718v20.582    c-15.458,16.208-61.667,69.797-61.667,131.231c0,42.644,34.694,77.338,77.338,77.338S512,461.101,512,418.457    C512,356.296,465.896,303.286,450.334,287.165z M156.349,47.545h28.374V70.56h-28.374V47.545z M260.63,464.454H80.443    L37.521,311.952h46.83v70.397h172.37v-70.397h46.83L260.63,464.454z M115.692,351.009v-52.236H225.38v52.236H115.692z     M263.267,218.583l34.374,62.028h-40.92v-13.18H84.351v13.18h-40.92l34.374-62.028h26.914h131.633H263.267z M205.011,163.148    v24.094H136.06v-24.094H205.011z M434.663,464.454c-25.362,0-45.996-20.634-45.996-45.996c0-42.549,29.632-82.814,46.085-101.891    c16.447,18.836,45.908,58.62,45.908,101.891C480.659,443.82,460.025,464.454,434.663,464.454z"/>
	</g>
</g>
<g>
</g>
<g>
</g>
<g>
</g>
<g>
</g>
<g>
</g>
<g>
</g>
<g>
</g>
<g>
</g>
<g>
</g>
<g>
</g>
<g>
</g>
<g>
</g>
<g>
</g>
<g>
</g>
<g>
</g>
</svg>
