<?xml version="1.0" encoding="iso-8859-1"?>
<!-- Generator: Adobe Illustrator 19.0.0, SVG Export Plug-In . SVG Version: 6.00 Build 0)  -->
<svg xmlns="http://www.w3.org/2000/svg" xmlns:xlink="http://www.w3.org/1999/xlink" version="1.1" id="Layer_1" x="0px" y="0px" viewBox="0 0 512 512" style="enable-background:new 0 0 512 512;" xml:space="preserve">
<g>
	<g>
		<g>
			<path d="M368.942,193.293L320.454,78.527h26.62V0H167.446v78.527h24.101l-48.487,114.765c-6.274,14.85-9.455,30.554-9.455,46.675     V512h244.792V239.967C378.397,223.845,375.217,208.143,368.942,193.293z M198.794,31.347h116.935V47.18h-8.517h-102.42h-5.998     V31.347z M347.05,480.653H164.952v-22.335H347.05V480.653z M347.05,426.971H164.952V239.967c0-11.908,2.349-23.506,6.983-34.474     l53.642-126.965h60.848l53.642,126.965c4.634,10.968,6.984,22.568,6.984,34.474V426.971z"/>
			<path d="M319.41,236.641c-17.297-27.002-37.482-22.404-47.231-17.869v-23.376h-31.347v23.861     c-9.307-4.651-30.323-10.585-48.239,17.384c0-0.001,31.003,15.865,48.239-6.301v18.089c-9.952,3.368-19.074,9.877-26.213,18.982     c-10.049,12.811-15.583,29.629-15.583,47.354s5.534,34.542,15.583,47.354c10.771,13.733,26.039,21.61,41.887,21.61     c15.849,0,31.116-7.876,41.887-21.61c10.049-12.811,15.583-29.629,15.583-47.354s-5.534-34.542-15.583-47.354     c-7.14-9.104-16.262-15.614-26.213-18.982V231.57C289.585,251.901,319.41,236.641,319.41,236.641z M282.627,314.765     c0,20.39-11.963,37.616-26.122,37.616c-14.159,0-26.122-17.226-26.122-37.616c0-20.39,11.963-37.616,26.122-37.616     C270.664,277.149,282.627,294.375,282.627,314.765z"/>
		</g>
	</g>
</g>
<g>
</g>
<g>
</g>
<g>
</g>
<g>
</g>
<g>
</g>
<g>
</g>
<g>
</g>
<g>
</g>
<g>
</g>
<g>
</g>
<g>
</g>
<g>
</g>
<g>
</g>
<g>
</g>
<g>
</g>
</svg>
