<?xml version="1.0" encoding="iso-8859-1"?>
<!-- Generator: Adobe Illustrator 19.0.0, SVG Export Plug-In . SVG Version: 6.00 Build 0)  -->
<svg xmlns="http://www.w3.org/2000/svg" xmlns:xlink="http://www.w3.org/1999/xlink" version="1.1" id="Layer_1" x="0px" y="0px" viewBox="0 0 512 512" style="enable-background:new 0 0 512 512;" xml:space="preserve">
<g>
	<g>
		<path d="M353.931,106.283c6.407-18.662-2.781-39.369-20.916-47.141l-26.74-11.46c-4.665-2-7.68-6.571-7.68-11.646V0h-85.191    v36.036c0,5.075-3.015,9.647-7.68,11.646l-26.74,11.459c-18.135,7.772-27.323,28.479-20.917,47.141l28.461,82.897    c4.636,13.502,2.905,28.159-4.749,40.21l-13.391,21.085c-6.159,9.698-6.547,21.976-1.015,32.044    c5.533,10.069,16.106,16.322,27.594,16.322h45.359v181.812h-27.167V512h27.167h31.347h27.167v-31.347h-27.167V298.841h45.359    c11.488,0,22.061-6.254,27.594-16.322c5.533-10.068,5.144-22.346-1.015-32.044l-13.391-21.084    c-7.655-12.052-9.385-26.708-4.749-40.211L353.931,106.283z M317.154,267.486c-0.001,0-0.038,0.008-0.121,0.008H194.968    c-0.027,0-0.049-0.001-0.065-0.001c-0.003,0-0.007,0-0.01,0.001c-0.041-0.047-0.081-0.128-0.1-0.107c0,0,0.013-0.036,0.057-0.107    l13.391-21.084c5.417-8.528,9.05-17.837,10.861-27.451h73.796c1.811,9.612,5.444,18.922,10.861,27.451l13.391,21.084    c0.019,0.029,0.031,0.052,0.04,0.064C317.172,267.405,317.133,267.482,317.154,267.486z M324.283,96.104L295.822,179    c-0.953,2.774-1.743,5.578-2.375,8.399h-74.896c-0.632-2.821-1.422-5.625-2.374-8.399l-28.461-82.897    c-1.108-3.226,0.481-6.805,3.615-8.149l26.74-11.46c16.206-6.945,26.678-22.826,26.678-40.458v-4.688h22.497v4.69    c0,17.633,10.472,33.513,26.678,40.458l26.74,11.46C323.803,89.299,325.391,92.879,324.283,96.104z"/>
	</g>
</g>
<g>
</g>
<g>
</g>
<g>
</g>
<g>
</g>
<g>
</g>
<g>
</g>
<g>
</g>
<g>
</g>
<g>
</g>
<g>
</g>
<g>
</g>
<g>
</g>
<g>
</g>
<g>
</g>
<g>
</g>
</svg>
