<?xml version="1.0" encoding="iso-8859-1"?>
<!-- Generator: Adobe Illustrator 19.0.0, SVG Export Plug-In . SVG Version: 6.00 Build 0)  -->
<svg xmlns="http://www.w3.org/2000/svg" xmlns:xlink="http://www.w3.org/1999/xlink" version="1.1" id="Layer_1" x="0px" y="0px" viewBox="0 0 512 512" style="enable-background:new 0 0 512 512;" xml:space="preserve">
<g>
	<g>
		<path d="M427.423,208.98V92.3h-35.746h-8.675c-3.371-8.677-9.391-20.696-19.799-32.778c-15.273-17.73-42.932-38.475-90.193-42.827    C272.285,7.356,264.495,0,254.97,0c-9.501,0-17.279,7.321-18.037,16.628c-47.716,4.206-75.418,25.11-90.622,42.96    c-10.262,12.047-16.168,24.027-19.468,32.711H92.841c-7.431,0-11.072,9.057-5.707,14.2l46.468,45.817L170.602,297.1h10.689v10.1    h-10.689l-44.328,173.453H99.673V512h18.592h273.412h15.893v-31.347h-23.904L339.338,307.2h-10.688v-10.101h10.688l44.328-173.453    h6.83h5.58v85.334H427.423z M254.601,47.202c57.033,0,82.666,26.235,93.724,45.098H161.391    C172.219,73.471,197.55,47.202,254.601,47.202z M258.304,265.752h-5.869l-24.112-142.106h54.093L258.304,265.752z     M297.301,297.099V307.2H212.64v-10.101H297.301z M158.629,123.647h37.898l24.112,142.106h-25.694L158.629,123.647z     M195.728,480.653H158.63l36.316-142.106h24.895L195.728,480.653z M227.523,480.653l24.113-142.106h5.869l24.112,142.106H227.523z     M351.311,480.653h-37.898l-24.112-142.106h25.694L351.311,480.653z M314.995,265.752H290.1l24.113-142.106h37.098    L314.995,265.752z"/>
	</g>
</g>
<g>
</g>
<g>
</g>
<g>
</g>
<g>
</g>
<g>
</g>
<g>
</g>
<g>
</g>
<g>
</g>
<g>
</g>
<g>
</g>
<g>
</g>
<g>
</g>
<g>
</g>
<g>
</g>
<g>
</g>
</svg>
