<?xml version="1.0" encoding="iso-8859-1"?>
<!-- Generator: Adobe Illustrator 19.0.0, SVG Export Plug-In . SVG Version: 6.00 Build 0)  -->
<svg xmlns="http://www.w3.org/2000/svg" xmlns:xlink="http://www.w3.org/1999/xlink" version="1.1" id="Layer_1" x="0px" y="0px" viewBox="0 0 512 512" style="enable-background:new 0 0 512 512;" xml:space="preserve">
<g>
	<g>
		<g>
			<path d="M473.382,299.552c-9.709-21.859-32.153-26.489-49.56-26.458c0-0.02,0.001-0.04,0.001-0.06     c0-0.844-0.014-1.687-0.028-2.528l-0.258-16.142H34.946l-0.257,16.083c-0.015,0.861-0.028,1.722-0.028,2.587     c0,107.293,87.289,194.582,194.581,194.582c58.784,0,111.561-26.204,147.27-67.542c1.093,0.025,2.187,0.058,3.268,0.058     c35.895-0.001,65.997-13.939,83.574-39.034C477.248,341.259,481.184,317.099,473.382,299.552z M229.242,436.068     c-63.639,0-118.87-36.658-145.71-89.962h291.421C348.111,399.41,292.881,436.068,229.242,436.068z M386.906,314.56H71.577     c-2.441-9.257-4.096-18.829-4.867-28.648h325.062C391.002,295.731,389.347,305.303,386.906,314.56z M437.514,342.999     c-5.427,7.749-16.686,19.096-37.722,23.624c10.439-18.948,17.806-39.812,21.44-61.919c9.635-0.393,20.379,1.038,23.321,7.659     C447.266,318.468,445.722,331.279,437.514,342.999z"/>
			<rect x="132.183" y="480.453" width="205.057" height="31.547"/>
			<path d="M248.945,125.22l19.333-24.929c-1.31-1.017-7.979-7.421-8.031-13.315c-0.039-4.538,4.461-9.112,8.243-12.15     c16.737-13.446,20.131-27.563,20.03-37.038C288.292,16.055,270.281,1.579,268.229,0l-19.234,25.005l-0.11-0.087     c2.638,2.109,8.087,8.131,8.093,13.274c0.004,4.473-4.481,9.016-8.244,12.04c-16.703,13.42-20.112,27.535-20.031,37.014     C228.889,109.041,246.892,123.628,248.945,125.22z"/>
			<path d="M170.077,195.402l19.333-24.929l0.109,0.086c-2.657-2.142-8.144-8.254-8.14-13.474c0.003-4.511,4.485-9.057,8.243-12.077     c16.737-13.446,20.131-27.564,20.03-37.039c-0.229-21.733-18.24-36.208-20.292-37.787l-19.234,25.005     c1.301,1,7.919,7.304,7.981,13.115c0.047,4.499-4.457,9.069-8.243,12.112c-16.703,13.419-20.112,27.535-20.031,37.014     C150.022,179.223,168.024,193.81,170.077,195.402z"/>
			<path d="M297.753,195.419l19.333-24.929c-1.31-1.017-7.98-7.421-8.031-13.315c-0.039-4.536,4.461-9.111,8.243-12.15     c16.737-13.446,20.13-27.563,20.03-37.039c-0.23-21.732-18.24-36.209-20.292-37.787l-19.234,25.004l-0.11-0.086     c2.638,2.109,8.087,8.13,8.092,13.274c0.005,4.473-4.481,9.017-8.243,12.041c-16.703,13.419-20.112,27.535-20.031,37.014     C277.697,179.24,295.7,193.828,297.753,195.419z"/>
		</g>
	</g>
</g>
<g>
</g>
<g>
</g>
<g>
</g>
<g>
</g>
<g>
</g>
<g>
</g>
<g>
</g>
<g>
</g>
<g>
</g>
<g>
</g>
<g>
</g>
<g>
</g>
<g>
</g>
<g>
</g>
<g>
</g>
</svg>
