<?xml version="1.0" encoding="iso-8859-1"?>
<!-- Generator: Adobe Illustrator 19.0.0, SVG Export Plug-In . SVG Version: 6.00 Build 0)  -->
<svg xmlns="http://www.w3.org/2000/svg" xmlns:xlink="http://www.w3.org/1999/xlink" version="1.1" id="Layer_1" x="0px" y="0px" viewBox="0 0 512 512" style="enable-background:new 0 0 512 512;" xml:space="preserve">
<g>
	<g>
		<path d="M331.006,113.894l11.114-15.764c3.397,0.737,6.919,1.136,10.534,1.136c27.367,0,49.633-22.266,49.633-49.633    C402.286,22.266,380.02,0,352.653,0S303.02,22.266,303.02,49.633c0,12.379,4.566,23.705,12.088,32.407l-22.456,31.854H81.118    l159.209,163.505v203.255h-36.049V512h103.445v-31.347h-36.049V277.398l77.66-79.756h0.231v-0.238l81.318-83.51H331.006z     M352.653,31.347c10.082,0,18.286,8.203,18.286,18.286c0,10.082-8.203,18.286-18.286,18.286s-18.286-8.203-18.286-18.286    S342.571,31.347,352.653,31.347z M155.394,145.241h115.16l-14.843,21.055h-79.816L155.394,145.241z M256,248.561l-49.58-50.918    h99.162L256,248.561z M336.105,166.296h-42.04l14.843-21.055h47.7L336.105,166.296z"/>
	</g>
</g>
<g>
</g>
<g>
</g>
<g>
</g>
<g>
</g>
<g>
</g>
<g>
</g>
<g>
</g>
<g>
</g>
<g>
</g>
<g>
</g>
<g>
</g>
<g>
</g>
<g>
</g>
<g>
</g>
<g>
</g>
</svg>
