<?xml version="1.0" encoding="iso-8859-1"?>
<!-- Generator: Adobe Illustrator 19.0.0, SVG Export Plug-In . SVG Version: 6.00 Build 0)  -->
<svg xmlns="http://www.w3.org/2000/svg" xmlns:xlink="http://www.w3.org/1999/xlink" version="1.1" id="Layer_1" x="0px" y="0px" viewBox="0 0 512 512" style="enable-background:new 0 0 512 512;" xml:space="preserve">
<g>
	<g>
		<path d="M322.875,173.756l-27.029-29.221V31.347h7.173V0h-7.173h-79.664h-7.204v31.347h7.203v113.156l-27.059,29.252    c-18.959,20.496-29.725,46.921-30.533,74.736h-0.054v3.377v201.376v22.562c0,19.958,16.237,36.193,36.193,36.193h122.541    c19.956,0,36.193-16.237,36.193-36.193V251.868C353.463,222.82,342.6,195.079,322.875,173.756z M189.882,279.838h74.476v24.227    h-74.476V279.838z M189.882,335.412h74.476v86.485h-74.476V335.412z M322.117,475.807h-0.001c0,2.673-2.174,4.846-4.846,4.846    H194.728c-2.672,0-4.846-2.174-4.846-4.846v-22.563h105.823V248.491H189.961c0.795-19.897,8.59-38.766,22.174-53.45l35.395-38.263    V31.347h16.97v125.464l35.365,38.231c14.35,15.514,22.252,35.695,22.252,56.827V475.807z"/>
	</g>
</g>
<g>
</g>
<g>
</g>
<g>
</g>
<g>
</g>
<g>
</g>
<g>
</g>
<g>
</g>
<g>
</g>
<g>
</g>
<g>
</g>
<g>
</g>
<g>
</g>
<g>
</g>
<g>
</g>
<g>
</g>
</svg>
