<?xml version="1.0" encoding="iso-8859-1"?>
<!-- Generator: Adobe Illustrator 19.0.0, SVG Export Plug-In . SVG Version: 6.00 Build 0)  -->
<svg xmlns="http://www.w3.org/2000/svg" xmlns:xlink="http://www.w3.org/1999/xlink" version="1.1" id="Layer_1" x="0px" y="0px" viewBox="0 0 511.999 511.999" style="enable-background:new 0 0 511.999 511.999;" xml:space="preserve">
<g>
	<g>
		<path d="M492.7,241.292v-27.511h-31.347v19.673H447.46V141.41l-4.947-4.643c-25.038-23.501-58.07-42.942-95.526-56.223    c-38.819-13.763-80.801-20.743-124.778-20.743c-85.737,0-164.839,26.95-217.023,73.941L0,138.411v224.511l5.185,4.67    c13.868,12.488,29.652,23.544,46.941,33.071v51.535h31.347v-36.621c41.357,16.841,88.92,25.955,138.735,25.955    c43.978,0,85.96-6.979,124.778-20.743c9.542-3.383,18.791-7.17,27.699-11.318v42.727h31.347v-59.725    c13.448-8.441,25.708-17.795,36.479-27.905l4.947-4.644V264.8h20.066c7.239,0,13.128,5.889,13.128,13.128v15.71h31.347v-15.71    C512,262.745,504.347,249.32,492.7,241.292z M86.032,382.377c-20.52-9.193-39.03-20.476-54.685-33.579v-36.819    c16.561,11.198,34.935,20.782,54.685,28.623V382.377z M86.032,306.356c-20.522-9.195-39.03-20.481-54.685-33.586v-6.429h54.685    V306.356z M86.032,234.993H31.347v-6.416c15.656-13.105,34.163-24.391,54.685-33.586V234.993z M86.032,160.745    c-19.75,7.843-38.124,17.426-54.685,28.624v-36.833c15.655-13.103,34.165-24.386,54.685-33.58V160.745z M335.034,391.679    c-34.395,11.975-73.033,18.509-112.826,18.509c-36.629-0.001-72.425-5.592-104.829-15.894v-43.052    c32.672,9.33,68.138,14.281,104.829,14.281c39.503,0,77.388-5.65,112.826-16.772V391.679z M335.034,315.671    C300.64,327.645,262,334.175,222.208,334.175c-36.631,0-72.425-5.594-104.829-15.896V266.34h217.655V315.671z M335.034,234.993    H117.379v-51.925c32.404-10.302,68.199-15.896,104.829-15.896c39.792,0,78.432,6.531,112.826,18.504V234.993z M335.034,152.597    c-35.437-11.122-73.322-16.772-112.826-16.772c-36.692,0-72.159,4.951-104.829,14.281V107.04    c32.404-10.302,68.201-15.893,104.829-15.893c39.793,0,78.431,6.535,112.826,18.509V152.597z M416.113,346.191    c-14.294,12.484-31.091,23.388-49.732,32.491v-41.511c18.009-7.746,34.738-16.955,49.732-27.365V346.191z M416.113,270.166    c-14.294,12.488-31.09,23.389-49.732,32.492V266.34h49.732V270.166z M416.113,234.993h-49.732v-36.305    c18.642,9.104,35.438,20.006,49.732,32.493V234.993z M416.113,191.541c-14.993-10.411-31.722-19.619-49.732-27.365v-41.523    c18.641,9.103,35.438,20.006,49.732,32.492V191.541z"/>
	</g>
</g>
<g>
</g>
<g>
</g>
<g>
</g>
<g>
</g>
<g>
</g>
<g>
</g>
<g>
</g>
<g>
</g>
<g>
</g>
<g>
</g>
<g>
</g>
<g>
</g>
<g>
</g>
<g>
</g>
<g>
</g>
</svg>
