<?xml version="1.0" encoding="iso-8859-1"?>
<!-- Generator: Adobe Illustrator 19.0.0, SVG Export Plug-In . SVG Version: 6.00 Build 0)  -->
<svg xmlns="http://www.w3.org/2000/svg" xmlns:xlink="http://www.w3.org/1999/xlink" version="1.1" id="Layer_1" x="0px" y="0px" viewBox="0 0 511.999 511.999" style="enable-background:new 0 0 511.999 511.999;" xml:space="preserve">
<g>
	<g>
		<g>
			<path d="M469.934,215.414c0-49.749-40.474-90.224-90.224-90.224c-27.822,0-53.933,12.944-70.899,34.477     c-5.742-1.943-11.577-3.649-17.482-5.092v-41.405h34.681V40.679H291.33V0H189.111v40.679H154.43v72.492h34.681v41.399     C103.16,175.536,42.065,247.557,42.065,330.228c0,48.833,20.8,94.66,58.57,129.039c37.359,34.005,86.932,52.732,139.586,52.732     s102.227-18.728,139.586-52.732c37.77-34.379,58.57-80.206,58.57-129.039c0-14.22-1.8-28.309-5.345-42.039     C456.063,271.334,469.934,244.473,469.934,215.414z M220.403,31.291h39.636v9.387h-39.636V31.291z M185.722,81.879V71.97h3.39     H291.33h3.39v9.909h-3.39H189.111H185.722z M207.518,182.648l12.886-2.309v-67.168h39.636v67.167l12.885,2.309     c12.361,2.215,24.479,5.728,36.019,10.442c9.578,3.911,18.647,8.594,27.116,13.955c1.703,1.077,3.373,2.194,5.028,3.325     c1.377,0.943,2.736,1.904,4.077,2.882c1.627,1.187,3.238,2.391,4.813,3.631c2.342,1.843,4.619,3.748,6.839,5.702     c1.872,1.648,3.701,3.336,5.484,5.06c1.107,1.07,2.2,2.152,3.272,3.25c2.441,2.502,4.777,5.086,7.029,7.729     c0.363,0.426,0.731,0.848,1.089,1.277H106.866C130.871,211.079,166.18,190.058,207.518,182.648z M240.221,480.709     c-92.01,0-166.866-67.505-166.866-150.481c0-20.798,4.772-40.791,13.439-59.036h306.945c2.324,4.911,4.366,9.954,6.111,15.112     c4.801,14.196,7.235,28.975,7.235,43.924C407.087,413.202,332.231,480.709,240.221,480.709z M421.586,256.888     c-0.532-1.107-1.075-2.207-1.63-3.302c-0.025-0.05-0.052-0.099-0.078-0.15c-0.643-1.265-1.305-2.521-1.979-3.771     c-0.214-0.396-0.431-0.791-0.648-1.185c-0.523-0.951-1.053-1.897-1.593-2.839c-0.218-0.381-0.434-0.761-0.655-1.141     c-0.739-1.267-1.488-2.527-2.258-3.776c-0.066-0.105-0.133-0.21-0.199-0.315c-0.714-1.154-1.445-2.298-2.186-3.435     c-0.247-0.379-0.498-0.755-0.748-1.133c-0.605-0.913-1.218-1.821-1.84-2.723c-0.242-0.352-0.483-0.705-0.728-1.055     c-0.844-1.207-1.7-2.406-2.575-3.594c-0.098-0.134-0.199-0.264-0.297-0.396c-0.788-1.063-1.589-2.116-2.4-3.164     c-0.277-0.358-0.558-0.714-0.839-1.069c-0.687-0.874-1.384-1.741-2.088-2.603c-0.261-0.319-0.519-0.64-0.783-0.959     c-0.947-1.144-1.907-2.279-2.883-3.402c-0.124-0.143-0.252-0.283-0.377-0.424c-0.864-0.987-1.739-1.964-2.624-2.933     c-0.3-0.329-0.603-0.655-0.905-0.982c-0.776-0.838-1.561-1.669-2.354-2.494c-0.27-0.281-0.537-0.563-0.808-0.843     c-1.047-1.076-2.107-2.143-3.182-3.197c-0.151-0.148-0.307-0.293-0.459-0.441c-0.934-0.907-1.876-1.807-2.83-2.696     c-0.322-0.3-0.647-0.6-0.971-0.899c-0.863-0.795-1.734-1.581-2.613-2.361c-0.275-0.244-0.549-0.491-0.825-0.734     c-1.142-1.002-2.297-1.993-3.465-2.971c-0.179-0.15-0.362-0.296-0.542-0.445c-0.997-0.828-2.005-1.646-3.021-2.455     c-0.343-0.273-0.688-0.546-1.034-0.817c-0.946-0.744-1.9-1.479-2.862-2.206c-0.279-0.211-0.554-0.424-0.832-0.632     c-1.231-0.921-2.474-1.829-3.73-2.723c-0.21-0.149-0.423-0.295-0.634-0.443c-1.053-0.744-2.116-1.478-3.188-2.203     c-0.365-0.247-0.731-0.492-1.098-0.737c-1.025-0.684-2.058-1.359-3.099-2.027c-0.28-0.179-0.557-0.362-0.839-0.54     c-1.311-0.831-2.634-1.649-3.969-2.452c-0.25-0.151-0.505-0.297-0.756-0.448c-1.094-0.652-2.197-1.294-3.307-1.928     c-0.391-0.223-0.783-0.444-1.176-0.665c-1.095-0.615-2.198-1.22-3.307-1.817c-0.285-0.153-0.566-0.309-0.852-0.461     c-0.123-0.066-0.244-0.133-0.367-0.198c10.814-10.251,25.297-16.217,40.56-16.217c32.495,0,58.932,26.437,58.932,58.932     C438.643,231.21,432.367,246.015,421.586,256.888z"/>
			<path d="M149.161,386.853c-13.48-16.62-19.361-32.24-19.418-32.395l-29.39,10.74c1.148,3.156,29.007,77.467,106.862,91.412     l5.517-30.801C187.909,421.363,166.52,408.256,149.161,386.853z"/>
		</g>
	</g>
</g>
<g>
</g>
<g>
</g>
<g>
</g>
<g>
</g>
<g>
</g>
<g>
</g>
<g>
</g>
<g>
</g>
<g>
</g>
<g>
</g>
<g>
</g>
<g>
</g>
<g>
</g>
<g>
</g>
<g>
</g>
</svg>
