<?xml version="1.0" encoding="iso-8859-1"?>
<!-- Generator: Adobe Illustrator 19.0.0, SVG Export Plug-In . SVG Version: 6.00 Build 0)  -->
<svg xmlns="http://www.w3.org/2000/svg" xmlns:xlink="http://www.w3.org/1999/xlink" version="1.1" id="Layer_1" x="0px" y="0px" viewBox="0 0 512 512" style="enable-background:new 0 0 512 512;" xml:space="preserve">
<g>
	<g>
		<path d="M382.67,42.093V31.025L283.039,7.104C275.041,2.59,265.82,0,256,0c-9.82,0-19.041,2.59-27.039,7.104L129.33,31.025v11.066    H91.258v31.347h38.072v11.066l84.494,20.287v18.345H203.26c-34.354,0-62.304,27.95-62.304,62.304V338.98    c0,39.044,27.933,71.677,64.862,78.992v43.845C205.818,489.489,228.329,512,256,512s50.182-22.511,50.182-50.182v-43.845    c36.929-7.315,64.862-39.949,64.862-78.992V185.442c0-34.354-27.95-62.304-62.304-62.304h-10.564v-18.345l84.494-20.287V73.44    h38.072V42.093H382.67z M200.808,69.43l-40.13-9.635v-4.058l40.13-9.635V69.43z M256,31.347c13.148,0,23.845,10.697,23.845,23.845    c0,12.703-9.985,23.115-22.519,23.806h-2.653c-12.534-0.691-22.519-11.103-22.519-23.806    C232.155,42.044,242.852,31.347,256,31.347z M266.829,110.344v12.794h-21.659v-12.794h9.301c0.509,0.014,1.016,0.039,1.529,0.039    c0.513,0,1.019-0.025,1.529-0.039H266.829z M205.818,380.375v5.233c-19.461-6.559-33.515-24.984-33.515-46.628V185.442    c0-17.069,13.888-30.957,30.957-30.957h10.564h26.503v178.227C220.31,339.312,205.818,358.177,205.818,380.375z M274.835,419.516    v42.302c0,10.386-8.45,18.835-18.835,18.835c-10.385,0-18.835-8.449-18.835-18.835v-42.302v-39.14    c0-10.386,8.45-18.835,18.835-18.835c10.385,0,18.835,8.449,18.835,18.835V419.516z M308.74,154.485    c17.069,0,30.957,13.887,30.957,30.957v153.538c0,21.645-14.054,40.07-33.515,46.629v-5.233c0-22.198-14.493-41.063-34.509-47.663    V154.485h26.503H308.74z M351.323,59.795l-40.13,9.635V46.102l40.13,9.635V59.795z"/>
	</g>
</g>
<g>
</g>
<g>
</g>
<g>
</g>
<g>
</g>
<g>
</g>
<g>
</g>
<g>
</g>
<g>
</g>
<g>
</g>
<g>
</g>
<g>
</g>
<g>
</g>
<g>
</g>
<g>
</g>
<g>
</g>
</svg>
