<?xml version="1.0" encoding="iso-8859-1"?>
<!-- Generator: Adobe Illustrator 19.0.0, SVG Export Plug-In . SVG Version: 6.00 Build 0)  -->
<svg xmlns="http://www.w3.org/2000/svg" xmlns:xlink="http://www.w3.org/1999/xlink" version="1.1" id="Layer_1" x="0px" y="0px" viewBox="0 0 512 512" style="enable-background:new 0 0 512 512;" xml:space="preserve">
<g>
	<g>
		<g>
			<path d="M175.446,130.389c-25.991-7.17-54.338-0.841-84.241,18.812l-13.431,8.827l9.12,13.235     c1.08,1.568,26.935,38.478,68.452,45.186c4.373,0.707,8.734,1.059,13.086,1.059c19.547,0,38.856-7.118,57.556-21.248     l10.299-7.783l-5.626-11.618C229.948,175.39,212.767,140.684,175.446,130.389z M160.547,185.433     c-15.003-2.367-27.524-11.227-35.977-19.027c15.503-7.222,29.664-9.165,42.254-5.769c12.495,3.369,21.716,11.555,27.634,18.529     C183.009,185.077,171.644,187.185,160.547,185.433z"/>
			<path d="M286.01,196.262c18.701,14.131,38.006,21.248,57.556,21.248c4.351,0,8.716-0.352,13.086-1.059     c41.516-6.708,67.372-43.618,68.452-45.186l9.119-13.235l-13.43-8.827c-29.902-19.653-58.245-25.984-84.241-18.812     c-37.321,10.295-54.502,45.001-55.216,46.473l-5.626,11.618L286.01,196.262z M344.916,160.707     c12.656-3.49,26.902-1.571,42.511,5.699c-8.457,7.806-20.976,16.661-35.975,19.027c-11.101,1.754-22.468-0.354-33.924-6.273     C323.394,172.246,332.529,164.123,344.916,160.707z"/>
			<rect x="243.162" y="128.348" width="25.684" height="25.684"/>
			<path d="M308.493,86.515v-0.001c-6.745-22.605-27.724-39.132-52.492-39.132s-45.748,16.527-52.492,39.132H0l3.363,18.532     c0.252,1.386,5.374,29.023,18.539,61.384h-0.029v298.188h31.45V222.939c24.998,32.516,55.789,49.477,90.564,49.477     c63.613,0,96.207-24.598,112.114-44.338c15.907,19.739,48.502,44.338,112.114,44.338c46.053,0,85.127-29.728,112.998-85.969     c19.892-40.141,27.222-79.734,27.524-81.4L512,86.515H308.493z M368.115,240.965c-59.289,0-83.179-24.432-92.141-38.995     c-4.34-7.051-11.806-11.261-19.973-11.261c-8.167,0-15.633,4.21-19.973,11.26c-8.963,14.563-32.854,38.996-92.141,38.996     c-64.266,0-94.666-84.614-105.147-123.002h193.948v-15.725l-0.001-0.306C232.802,89.174,243.216,78.83,256,78.83     c12.786,0,23.202,10.346,23.314,23.106l-0.001,16.026h193.947C462.777,156.357,432.38,240.965,368.115,240.965z"/>
		</g>
	</g>
</g>
<g>
</g>
<g>
</g>
<g>
</g>
<g>
</g>
<g>
</g>
<g>
</g>
<g>
</g>
<g>
</g>
<g>
</g>
<g>
</g>
<g>
</g>
<g>
</g>
<g>
</g>
<g>
</g>
<g>
</g>
</svg>
