<?xml version="1.0" encoding="iso-8859-1"?>
<!-- Generator: Adobe Illustrator 19.0.0, SVG Export Plug-In . SVG Version: 6.00 Build 0)  -->
<svg xmlns="http://www.w3.org/2000/svg" xmlns:xlink="http://www.w3.org/1999/xlink" version="1.1" id="Layer_1" x="0px" y="0px" viewBox="0 0 512 512" style="enable-background:new 0 0 512 512;" xml:space="preserve">
<g>
	<g>
		<path d="M369.713,74.384c-9.814-10.024-22.198-16.683-35.697-19.346C322.447,22.553,291.289,0,256.001,0    c-35.289,0-66.446,22.553-78.015,55.037c-13.498,2.662-25.884,9.323-35.698,19.345c-12.649,12.919-19.615,29.991-19.615,48.075    c0,26.65,15.255,49.791,37.482,61.193l35.605,121.975l-0.021,0.015l0.043,0.061L256.001,512l95.848-328.349    c22.226-11.403,37.479-34.542,37.479-61.192C389.328,104.376,382.361,87.302,369.713,74.384z M194.911,191.204h59.977    l-49.947,34.363L194.911,191.204z M256,400.48l-6.586-22.562l16.482-11.339L256,400.48z M279.751,319.116l-39.557,27.215    l-8.105-27.768l59.842-41.172L279.751,319.116z M305.785,229.928l-82.917,57.048l-8.706-29.822l95.858-65.951h7.069    L305.785,229.928z M320.582,159.954H191.419c-20.676,0-37.497-16.82-37.497-37.496c0-20.196,16.426-37.005,36.616-37.469    l12.475-0.286l2.48-12.229c4.845-23.886,26.086-41.224,50.508-41.224c24.421,0,45.662,17.338,50.508,41.225l2.48,12.228    l12.475,0.286c20.19,0.464,36.615,17.273,36.615,37.469C358.078,143.133,341.258,159.954,320.582,159.954z"/>
	</g>
</g>
<g>
</g>
<g>
</g>
<g>
</g>
<g>
</g>
<g>
</g>
<g>
</g>
<g>
</g>
<g>
</g>
<g>
</g>
<g>
</g>
<g>
</g>
<g>
</g>
<g>
</g>
<g>
</g>
<g>
</g>
</svg>
